<svg xmlns="http://www.w3.org/2000/svg" viewBox="0 0 22.79 22.79"><defs><style>.cls-1{fill:#009640;}</style></defs><title>Ativo 10</title><g id="Camada_2" data-name="Camada 2"><g id="Camada_1-2" data-name="Camada 1"><path class="cls-1" d="M10.25,14.19h0Z"/><path class="cls-1" d="M10.25,14.19h0Z"/><path class="cls-1" d="M10.25,14.19h0Z"/><path class="cls-1" d="M5,14.75H5Z"/><path class="cls-1" d="M5.83,14.92a1.71,1.71,0,0,1-.18-.07c-.06,0-.11-.06-.16-.07s-.21-.09-.33-.16a.48.48,0,0,1,.39,0A.53.53,0,0,1,5.83,14.92Z"/><path class="cls-1" d="M5.62,14.57c-.1-.06-.21-.09-.34-.17a.58.58,0,0,1,.41,0,.53.53,0,0,1,.27.3l-.17-.07A.61.61,0,0,0,5.62,14.57Z"/><path class="cls-1" d="M8.05,12.16a.28.28,0,0,1-.29.28.29.29,0,0,1-.29-.29.31.31,0,0,1,.3-.29A.29.29,0,0,1,8.05,12.16Z"/><path class="cls-1" d="M8.18,11.52a.44.44,0,0,1,.11.2A1,1,0,0,0,8,11.57a2.44,2.44,0,0,0-.39,0A.4.4,0,0,1,8,11.42.41.41,0,0,1,8.18,11.52Z"/><path class="cls-1" d="M21.41,11.87c0,.05,0,.09,0,.1a.55.55,0,0,1-.33.07H21c0-.13.13-.24.22-.22A.19.19,0,0,1,21.41,11.87Z"/><path class="cls-1" d="M20.32,0H2.47A2.46,2.46,0,0,0,0,2.46V20.32a2.47,2.47,0,0,0,2.47,2.47H20.32a2.47,2.47,0,0,0,2.47-2.47V2.46A2.46,2.46,0,0,0,20.32,0Zm1.5,12.06a.58.58,0,0,1-.3.36,1,1,0,0,1-.36.12h0s0,0,.05.07a1.05,1.05,0,0,0,.5.3,1,1,0,0,1-.56-.24.34.34,0,0,1-.12-.12,1.08,1.08,0,0,1-.61-.14l0,0a9,9,0,0,1-.24,1.34,23.11,23.11,0,0,0-.88,4.58,9.22,9.22,0,0,1-3,0l-.17-1.58a5.68,5.68,0,0,1-4.7-.1l.14,1.62s-2.83.54-3.17,0l0-.06a.21.21,0,0,1,0-.07.85.85,0,0,1-.06-.17s0,0,0-.06c0-.19-.09-.44-.13-.7C8,16.23,8,15.16,8,15.16c-.1.86-1.63,2.12-3.45,2A4.48,4.48,0,0,1,1,14.68l1.24-.95a2,2,0,0,0,2.74,1c.12.07.23.1.33.15l.16.08.18.08a.48.48,0,0,0-.27-.3.52.52,0,0,0-.37,0,.79.79,0,0,0,.3-.35c.48-1-.54-2.52-.63-4.37S6.22,4.73,9,4.39a9.25,9.25,0,0,1,3.36.35,3.25,3.25,0,0,0-.74.74A5.53,5.53,0,0,0,10.76,8a6.83,6.83,0,0,1,1.32-2.14,2.4,2.4,0,0,1,1-.62,2.34,2.34,0,0,1,.59-.09,2,2,0,0,1,.47.06c.19.06.39.12.58.2a3.4,3.4,0,0,1,.78.48,1.92,1.92,0,0,1,.41.5A2.79,2.79,0,0,1,16,8.48a13.68,13.68,0,0,1-.86,2.35c-.16.39-.35.82-.49,1.24a11.09,11.09,0,0,1-.48,1.12,2.94,2.94,0,0,1-1.6,1.58,2.09,2.09,0,0,1-1.16,0,4.72,4.72,0,0,1-1.13-.55h0a4,4,0,0,0,1,.84,2.32,2.32,0,0,0,1.38.29A2.7,2.7,0,0,0,14,14.71a4.93,4.93,0,0,0,.93-1.07,7.14,7.14,0,0,0,.65-1.22c.15-.39.34-.76.53-1.15a14.85,14.85,0,0,0,1-2.52,5.26,5.26,0,0,0,.15-1.44,3.26,3.26,0,0,0-.18-1,5.31,5.31,0,0,1,2,1.28l.12.12a.77.77,0,0,1,.09.13c.06,0,.1.11.16.17s.19.29.28.44a1.71,1.71,0,0,1,.13.23c0,.07.07.15.11.22.12.27.21.54.3.81,0,.07,0,.14,0,.21a6.36,6.36,0,0,1,.13.8l0,.25c0,.18,0,.35,0,.53a.89.89,0,0,0,.3.38l.11.08a.57.57,0,0,1,.07-.22.46.46,0,0,1,.32-.25.59.59,0,0,1,.4.1A.45.45,0,0,1,21.82,12.06Z"/></g></g></svg>